<?xml version="1.0" standalone="no"?>
<!DOCTYPE svg PUBLIC "-//W3C//DTD SVG 20010904//EN"
 "http://www.w3.org/TR/2001/REC-SVG-20010904/DTD/svg10.dtd">
<svg version="1.0" xmlns="http://www.w3.org/2000/svg"
 width="264.000000pt" height="346.000000pt" viewBox="0 0 264.000000 346.000000"
 preserveAspectRatio="xMidYMid meet">

<g transform="translate(0.000000,346.000000) scale(0.100000,-0.100000)"
fill="#000000" stroke="none">
<path d="M367 3263 l-298 -196 3 -786 3 -786 28 -90 c63 -200 160 -364 308
-520 l87 -90 -157 3 c-86 2 -196 2 -244 0 l-88 -3 66 -94 c36 -52 65 -98 65
-101 0 -4 -29 -48 -65 -98 -36 -50 -65 -93 -65 -96 0 -3 56 -6 125 -6 106 0
125 -2 125 -15 0 -29 38 -91 82 -133 215 -210 917 -310 1469 -211 201 36 380
108 476 193 51 45 103 120 103 148 0 16 11 18 120 18 66 0 120 3 120 6 0 3
-26 43 -58 87 -32 45 -62 88 -66 94 -4 7 22 54 64 113 l70 101 -244 -3 c-194
-2 -248 -6 -258 -17 -11 -12 -10 -13 7 -5 23 10 465 18 465 8 0 -3 -25 -42
-55 -85 -31 -44 -58 -86 -61 -94 -4 -9 20 -51 55 -100 34 -47 61 -88 61 -90 0
-3 -49 -5 -110 -5 l-110 0 0 155 0 155 -25 0 c-13 0 -54 -11 -91 -25 -81 -30
-113 -31 -148 -4 -19 15 -25 27 -20 41 4 14 2 18 -5 14 -7 -5 -11 -54 -11
-141 l0 -134 -57 -21 c-80 -30 -184 -57 -288 -74 -90 -16 -384 -40 -391 -33
-2 2 29 17 68 32 202 79 448 211 597 322 40 30 81 56 90 57 9 2 16 7 16 12 1
5 46 55 102 111 148 149 248 305 311 485 62 174 62 179 62 974 l0 723 -27 20
c-16 11 -151 101 -301 200 l-273 181 -667 0 -667 -1 -298 -196z m1909 -15
l294 -193 0 -745 c0 -712 -1 -749 -20 -825 -22 -87 -70 -219 -77 -212 -2 3 12
62 32 131 34 119 36 128 21 151 -12 18 -16 51 -16 133 0 96 2 111 20 127 18
16 20 31 20 155 0 110 -3 140 -15 150 -22 18 -22 232 0 250 12 10 15 40 15
153 0 123 -2 143 -19 161 -25 29 -38 257 -15 276 7 7 14 24 14 39 0 22 -17 37
-109 100 -83 56 -114 72 -130 66 -29 -9 -111 39 -111 65 0 13 -37 44 -117 100
-119 82 -158 95 -183 65 -10 -12 -38 -15 -130 -15 -96 0 -119 3 -124 15 -4 12
-32 15 -159 15 -125 0 -157 -3 -167 -15 -10 -12 -37 -15 -125 -15 -91 0 -114
3 -119 15 -4 12 -31 15 -155 15 l-150 0 -28 -33 c-36 -43 -132 -97 -172 -97
-23 0 -63 -22 -146 -77 -97 -66 -115 -83 -121 -110 -7 -36 -96 -113 -130 -113
-39 0 -44 -18 -44 -164 0 -117 3 -142 17 -158 23 -26 20 -216 -4 -233 -21 -16
-19 -291 2 -316 22 -23 21 -231 0 -249 -12 -10 -15 -41 -15 -155 0 -138 1
-144 23 -162 16 -12 36 -54 60 -125 30 -90 34 -112 25 -136 -10 -26 -5 -37 68
-145 55 -81 87 -119 104 -123 14 -4 61 -40 104 -80 68 -62 80 -78 80 -106 1
-30 10 -39 119 -115 96 -66 124 -81 145 -77 36 7 192 -79 192 -106 0 -10 6
-22 12 -28 18 -14 252 -102 272 -102 9 0 29 12 43 26 15 15 69 44 120 65 76
31 98 36 117 28 19 -9 40 -1 137 52 131 72 147 83 151 112 2 13 34 45 78 79
59 46 80 57 99 53 21 -5 40 9 128 97 85 85 103 108 103 133 0 46 100 185 144
200 41 14 40 11 -13 -80 -114 -196 -315 -394 -551 -539 -152 -95 -493 -256
-539 -256 -28 0 -186 66 -346 145 -496 244 -787 566 -874 969 -20 92 -21 124
-21 833 l1 738 292 192 292 191 654 1 654 1 293 -192z m-1273 116 c-4 -11 1
-22 12 -30 16 -12 0 -14 -113 -14 -81 0 -132 4 -132 10 0 6 5 10 11 10 6 0 9
9 6 20 -5 19 0 20 109 20 101 0 113 -2 107 -16z m582 6 c-4 -6 -1 -17 5 -25
11 -13 -5 -15 -116 -15 l-129 0 0 25 0 25 123 0 c83 0 121 -3 117 -10z m448
-57 c64 -44 94 -70 87 -77 -6 -6 -6 -14 2 -23 31 -37 -13 -18 -111 48 -79 54
-106 77 -99 86 5 7 7 17 3 23 -16 26 28 5 118 -57z m-160 15 c2 -7 57 -49 121
-93 108 -73 119 -78 145 -68 23 8 35 6 69 -14 26 -16 42 -32 42 -44 0 -19 66
-73 164 -135 l46 -29 0 -123 c0 -96 -3 -127 -15 -138 -12 -12 -15 -45 -15
-160 0 -133 2 -145 20 -156 18 -12 20 -24 20 -118 0 -94 -2 -106 -20 -118 -19
-11 -20 -23 -20 -162 0 -118 3 -151 14 -157 10 -6 16 -39 22 -115 7 -106 6
-107 -19 -130 -32 -29 -105 -272 -88 -292 15 -18 -95 -176 -122 -176 -25 0
-225 -195 -229 -224 -4 -28 -147 -138 -171 -130 -26 8 -264 -123 -280 -154
-15 -32 -181 -105 -206 -91 -9 5 -73 31 -142 57 -95 37 -130 46 -146 39 -30
-13 -183 75 -183 107 0 16 -27 41 -112 100 -62 44 -125 82 -139 85 -15 3 -59
36 -99 74 -60 55 -71 71 -66 90 3 14 -1 34 -10 48 -9 13 14 -9 51 -49 166
-179 414 -339 719 -461 l98 -39 97 40 c483 201 801 480 927 816 64 171 64 175
64 869 l-1 628 -259 173 -260 172 -567 0 -568 0 -257 -170 -258 -169 0 -659 0
-659 24 -95 c13 -53 40 -130 59 -172 39 -82 41 -96 7 -42 -11 19 -30 36 -41
38 -16 2 -27 24 -54 108 -32 97 -33 106 -18 122 14 16 15 37 10 155 -5 100
-11 141 -22 153 -11 13 -15 42 -15 122 0 94 2 107 21 124 21 18 21 24 15 164
-4 80 -11 147 -16 148 -6 2 -10 52 -10 112 0 85 3 110 15 120 13 11 16 39 14
167 l-1 154 42 33 c28 22 49 31 65 28 35 -6 265 154 265 185 0 29 124 103 143
84 7 -7 61 -11 152 -11 129 0 144 2 160 20 16 18 31 20 125 20 83 0 110 -3
120 -15 10 -12 41 -15 164 -15 140 0 152 1 164 20 11 18 23 20 126 20 82 0
115 -4 119 -12z m-1315 -114 c29 12 -3 -14 -110 -87 -72 -50 -95 -62 -91 -47
5 19 -6 26 -32 20 -16 -3 -5 5 101 78 90 62 100 67 107 49 5 -13 13 -17 25
-13z m672 -84 c0 -5 -9 -10 -20 -10 -11 0 -20 -4 -20 -10 0 -5 9 -10 20 -10
11 0 20 -4 20 -10 0 -5 -9 -10 -20 -10 -11 0 -20 -5 -20 -11 0 -7 10 -9 25 -7
33 7 32 -8 -2 -16 -31 -8 -43 5 -43 51 0 31 1 32 53 42 4 0 7 -3 7 -9z m84 -6
c7 -19 -10 -44 -30 -44 -8 0 -14 -7 -14 -15 0 -8 -4 -15 -10 -15 -5 0 -10 20
-10 45 0 43 1 45 29 45 17 0 31 -6 35 -16z m36 -19 c0 -24 5 -35 15 -35 10 0
15 11 15 35 0 19 5 35 11 35 6 0 9 -17 7 -42 -3 -40 -5 -43 -33 -43 -28 0 -30
3 -33 43 -2 25 1 42 7 42 6 0 11 -16 11 -35z m-210 0 c-11 -13 -9 -20 10 -40
19 -20 20 -25 7 -25 -9 0 -19 5 -22 10 -9 15 -25 12 -25 -5 0 -8 -4 -15 -10
-15 -5 0 -10 10 -10 23 0 12 -3 32 -6 45 -4 13 -2 22 5 22 6 0 11 -8 11 -17 0
-15 3 -14 22 5 24 24 38 22 18 -3z m298 -9 c-3 -28 0 -36 17 -42 18 -6 17 -7
-8 -11 -16 -3 -30 -3 -31 -1 -7 9 8 88 16 88 6 0 8 -15 6 -34z m1039 -101
c-19 -10 -31 -5 -102 44 -73 50 -79 57 -65 71 14 15 23 11 102 -43 83 -57 87
-61 65 -72z m-937 118 c1 -5 5 -27 9 -50 9 -44 0 -56 -18 -25 -8 14 -13 15
-30 4 -28 -16 -28 0 0 44 19 31 38 44 39 27z m-501 -44 c13 -38 14 -59 2 -59
-5 0 -11 12 -14 28 -3 15 -9 35 -12 45 -4 9 -3 17 3 17 6 0 15 -14 21 -31z
m559 -1 c-4 -43 14 -48 26 -9 5 17 13 31 17 31 12 0 11 -11 -2 -49 -8 -23 -17
-31 -34 -31 -31 0 -38 14 -31 56 9 43 28 45 24 2z m-598 1 c0 -6 -7 -9 -15 -6
-8 4 -17 2 -20 -3 -4 -6 5 -10 18 -10 29 0 43 -26 26 -47 -14 -17 -51 -14 -57
5 -3 9 3 11 22 6 16 -4 26 -2 26 5 0 6 -11 11 -24 11 -28 0 -40 14 -32 35 6
17 56 20 56 4z m710 -51 l0 -52 -21 23 c-16 17 -24 20 -35 10 -8 -6 -14 -8
-14 -4 0 13 50 75 61 75 5 0 9 -23 9 -52z m-778 3 c9 -22 14 -42 11 -45 -3 -3
-19 4 -36 16 l-29 21 11 -21 c13 -25 14 -32 3 -32 -5 0 -16 18 -25 40 -17 44
-7 52 26 23 19 -18 20 -17 13 10 -10 41 9 32 26 -12z m838 -9 l0 -27 20 25
c24 30 26 16 5 -34 -18 -42 -35 -39 -36 7 l-1 32 -10 -27 c-5 -16 -14 -28 -19
-28 -12 0 -12 3 7 50 18 43 34 45 34 2z m-903 -65 c-2 -7 -13 7 -25 29 -12 23
-18 45 -14 48 8 9 44 -62 39 -77z m-54 46 c15 -54 17 -73 7 -73 -18 0 -79 53
-73 63 3 5 17 -2 30 -15 l26 -23 -6 33 c-7 33 8 46 16 15z m537 -45 c8 -25 15
-28 52 -28 l43 0 -33 -27 c-35 -27 -37 -42 -16 -98 7 -17 2 -16 -30 9 l-37 28
-37 -26 c-20 -14 -37 -24 -39 -22 -2 1 3 21 11 44 l15 41 -37 23 -37 23 46 3
c46 3 47 3 60 49 13 49 14 49 39 -19z m564 16 c3 -7 -2 -18 -10 -24 -8 -7 -14
-21 -14 -31 0 -11 -4 -19 -10 -19 -5 0 -10 9 -10 19 0 25 -16 36 -24 15 -3 -8
-10 -12 -16 -9 -6 4 -1 21 12 44 20 34 25 38 45 28 12 -5 24 -16 27 -23z
m-1162 -21 c30 -27 17 -73 -21 -73 -20 0 -51 30 -51 50 0 38 41 51 72 23z
m-573 -9 c16 10 21 -22 21 -129 0 -100 -1 -103 -21 -98 -12 4 -25 0 -30 -8 -5
-9 -9 39 -9 120 0 116 2 132 15 121 8 -6 18 -9 24 -6z m1771 10 c0 -14 -43
-75 -48 -69 -8 7 28 75 40 75 4 0 8 -3 8 -6z m47 -69 c-10 -43 -27 -62 -27
-30 0 14 -11 19 -37 16 -7 -1 -13 2 -13 6 0 12 54 52 71 53 14 0 15 -6 6 -45z
m-1327 16 c0 -11 9 -23 20 -26 11 -4 18 -10 15 -15 -3 -5 -16 -5 -30 0 -23 9
-25 8 -19 -15 8 -34 1 -31 -31 11 -27 35 -27 37 -10 50 28 20 55 18 55 -5z
m1012 2 c18 -16 25 -63 10 -63 -4 0 -14 6 -21 13 -11 10 -12 8 -6 -10 8 -29 1
-29 -38 -1 l-32 22 23 -25 c12 -14 22 -31 22 -38 0 -8 -8 -10 -22 -6 -20 5
-21 4 -5 -5 26 -17 20 -30 -15 -30 -44 0 -68 24 -62 64 13 77 12 76 49 76 18
0 37 5 40 10 9 15 36 12 57 -7z m-755 -49 c-2 -25 -16 -62 -31 -84 -27 -41
-37 -68 -13 -35 9 11 19 15 27 10 8 -5 11 -4 6 3 -3 6 3 13 14 17 11 4 29 24
40 45 11 21 30 46 42 55 26 17 97 39 105 31 3 -2 -5 -23 -18 -45 -22 -39 -68
-71 -106 -71 -10 0 -27 -7 -37 -15 -19 -14 -19 -15 8 -15 15 0 41 -7 58 -16
35 -18 28 -27 -34 -44 -28 -8 -47 -7 -82 5 -45 15 -48 15 -76 -5 -17 -12 -30
-22 -30 -24 0 -1 16 0 35 2 40 5 85 -4 85 -17 0 -5 -20 -19 -45 -31 -36 -17
-55 -21 -93 -15 -47 6 -48 6 -82 -37 -18 -24 -25 -35 -14 -26 30 26 75 39 107
32 l29 -6 -24 -25 c-29 -32 -77 -53 -121 -53 -29 0 -37 -5 -47 -30 -7 -16 -17
-27 -23 -23 -6 3 -7 1 -3 -6 5 -8 16 -4 38 14 27 23 98 36 98 18 0 -3 -11 -21
-25 -39 -18 -23 -41 -38 -73 -47 -30 -9 -51 -21 -57 -35 -5 -12 -13 -22 -17
-22 -4 0 -5 -7 -2 -15 5 -11 12 -8 30 15 21 25 78 49 89 38 2 -2 -5 -22 -15
-46 -14 -32 -30 -47 -64 -64 -45 -21 -46 -23 -46 -67 l0 -46 18 34 c18 36 67
79 78 68 17 -17 -10 -84 -50 -123 -37 -35 -42 -45 -38 -72 5 -39 -7 -41 -62
-9 -51 29 -76 64 -83 117 l-6 43 43 -24 c23 -13 53 -40 66 -59 l24 -35 0 32
c0 24 -8 38 -39 62 -21 17 -46 46 -55 65 -18 39 -22 116 -5 116 19 0 78 -69
88 -103 l9 -32 1 33 c1 23 -8 45 -29 71 -36 45 -47 95 -30 145 10 31 14 35 27
25 21 -18 53 -84 54 -111 l0 -23 10 24 c7 19 5 35 -11 68 -26 56 -26 118 1
162 20 33 22 34 32 15 6 -10 16 -44 22 -74 11 -51 12 -53 24 -32 9 17 9 27 0
44 -32 59 -28 128 10 171 15 18 16 17 27 -15 16 -42 17 -103 3 -131 -7 -14 3
-8 26 16 37 38 37 38 26 83 -13 50 -9 72 22 123 23 38 31 31 41 -34 5 -30 2
-50 -13 -78 -12 -24 -15 -39 -8 -44 5 -3 7 -1 3 5 -3 6 11 23 33 38 35 26 38
32 34 66 -7 49 2 80 33 117 33 40 48 30 41 -25z m1107 7 c-24 -41 -8 -53 22
-18 13 16 29 27 34 25 6 -2 -3 -19 -19 -38 -25 -29 -32 -33 -48 -24 -26 16
-27 36 -2 68 27 35 36 26 13 -13z m-1432 -31 c-6 -10 -9 -26 -6 -35 10 -26
-11 -16 -36 17 l-23 31 23 19 c21 17 25 17 39 3 13 -12 13 -19 3 -35z m1239 0
c24 -14 51 -64 43 -84 -5 -12 -10 -13 -26 -5 -17 9 -19 8 -13 -10 7 -25 -3
-27 -31 -6 -26 20 -40 19 -22 -2 32 -38 33 -46 4 -41 -25 5 -25 4 -11 -12 8
-9 12 -20 8 -23 -17 -18 -97 3 -106 27 -8 22 10 118 24 127 8 5 28 9 45 9 17
0 37 7 44 15 15 18 16 18 41 5z m-368 -402 c83 -170 280 -438 373 -505 l27
-20 -64 -43 c-99 -67 -227 -201 -307 -323 -39 -60 -72 -113 -74 -119 -3 -8
-11 -7 -28 2 -23 12 -128 9 -178 -6 -19 -5 -31 3 -73 47 -230 248 -293 622
-154 925 50 109 109 190 212 292 52 50 98 92 102 92 5 0 7 -12 5 -27 -2 -17 1
-12 8 11 l11 40 46 -135 c26 -74 68 -178 94 -231z m522 276 c22 -9 47 -61 40
-84 -7 -23 -20 -26 -31 -8 -6 9 -10 5 -14 -11 l-5 -24 -33 28 -33 27 23 -37
22 -38 -27 5 c-26 5 -27 4 -11 -13 15 -17 15 -19 0 -25 -20 -8 -55 1 -79 18
-15 12 -17 22 -11 66 9 71 22 86 72 84 23 -1 44 3 47 8 7 12 17 12 40 4z m525
-166 c0 -115 -2 -129 -15 -118 -12 10 -18 10 -30 0 -13 -11 -15 3 -15 120 0
112 2 131 15 127 8 -4 17 -2 20 4 17 27 25 -15 25 -133z m-409 -1 c28 8 49
-19 49 -63 0 -40 -24 -63 -39 -37 -9 17 -10 16 -19 -6 l-8 -24 -22 34 -21 34
6 -40 6 -39 -27 17 c-27 18 -27 18 -16 -3 15 -28 6 -36 -27 -24 -38 13 -62 58
-45 81 7 10 17 30 23 44 14 37 46 50 86 34 17 -8 42 -11 54 -8z m-1935 -160
c11 4 14 -7 14 -49 0 -30 3 -83 7 -118 6 -62 6 -62 -16 -51 -12 7 -26 9 -31 6
-6 -4 -10 37 -10 111 0 87 3 115 11 107 6 -6 18 -9 25 -6z m1972 -7 c12 -11
28 -17 37 -14 25 10 45 -15 45 -56 0 -38 -21 -67 -40 -55 -5 3 -10 14 -11 23
0 15 -1 15 -8 -1 -11 -29 -23 -25 -37 13 l-12 35 -1 -44 -1 -44 -21 19 c-21
19 -22 19 -15 -3 11 -33 -27 -31 -53 3 -30 38 -26 59 17 104 41 44 68 50 100
20z m39 -188 c9 -16 26 -33 37 -38 12 -5 22 -19 24 -31 4 -29 -26 -73 -50 -73
-17 0 -19 4 -14 28 l7 27 -16 -23 c-22 -31 -38 -17 -31 27 5 34 5 34 -7 11
-25 -52 -29 -54 -43 -29 l-13 24 -1 -22 c0 -13 -6 -23 -15 -23 -20 0 -37 35
-33 72 2 25 12 36 43 54 56 33 92 31 112 -4z m-1527 -102 c0 -61 -49 -140 -76
-122 -15 10 -25 40 -15 47 5 2 12 17 16 32 6 28 51 83 67 83 4 0 8 -18 8 -40z
m1834 0 c21 0 26 -23 26 -133 0 -87 -2 -98 -14 -82 -8 11 -19 16 -30 12 -14
-6 -16 7 -15 121 0 86 3 120 9 105 5 -13 16 -23 24 -23z m-1998 -69 c22 -10
50 -30 61 -44 11 -15 23 -24 26 -20 7 7 29 -46 23 -55 -2 -4 2 -13 10 -20 11
-10 13 -8 8 16 -6 30 13 79 39 100 12 10 16 8 21 -10 14 -52 6 -95 -25 -138
-17 -23 -26 -40 -21 -36 11 7 47 -42 38 -52 -3 -3 -6 -1 -6 5 0 6 -27 13 -60
15 -40 3 -70 11 -88 25 -28 21 -68 80 -60 89 12 11 112 -20 141 -44 l31 -27
-20 35 c-13 24 -29 36 -51 41 -51 10 -96 42 -120 85 -13 21 -23 42 -23 47 0
12 33 7 76 -12z m1664 -1 c11 -11 20 -26 20 -34 0 -8 9 -17 19 -21 40 -12 33
-70 -13 -100 -32 -21 -50 -12 -35 16 9 19 9 19 -10 10 -30 -16 -33 -14 -26 22
l7 32 -26 -30 c-20 -23 -25 -26 -26 -12 0 18 -20 25 -20 7 0 -5 -7 -10 -15
-10 -29 0 -34 96 -5 110 65 32 105 35 130 10z m-1411 -180 c7 -33 6 -54 -6
-92 l-16 -49 37 -37 38 -37 -16 32 c-9 18 -16 44 -16 59 0 31 21 94 31 94 3 0
17 -23 29 -52 21 -50 23 -83 5 -143 -4 -16 6 -29 49 -62 l55 -42 -34 45 c-30
39 -35 53 -35 97 0 69 10 84 37 55 42 -46 56 -88 50 -148 l-6 -56 70 -34 c39
-19 66 -36 60 -38 -6 -2 -45 14 -86 37 -73 39 -76 40 -110 26 -19 -8 -51 -15
-72 -15 -39 0 -104 28 -111 48 -5 15 73 35 120 30 36 -3 37 -3 20 14 -16 16
-24 17 -75 7 -48 -10 -64 -9 -100 5 -24 9 -54 27 -66 40 l-22 24 53 6 c59 7
110 -4 142 -31 11 -10 7 -2 -9 18 -28 34 -33 36 -72 32 -56 -7 -124 19 -159
60 l-27 32 48 3 c35 2 61 -3 96 -21 26 -13 45 -19 41 -13 -16 26 -11 92 9 134
24 49 31 45 48 -28z m1349 18 c7 -7 12 -24 12 -39 0 -19 6 -30 20 -34 12 -4
20 -15 20 -29 0 -25 -44 -76 -66 -76 -20 0 -27 19 -12 37 12 15 11 15 -10 4
-32 -17 -36 -10 -17 35 l16 39 -29 -28 c-33 -32 -42 -34 -42 -9 -1 16 -1 16
-11 -1 -8 -14 -14 -16 -25 -6 -17 14 -18 69 -1 91 18 25 124 37 145 16z
m-1904 -138 l7 -125 -30 0 -31 0 0 122 c0 101 2 121 14 117 8 -3 17 0 21 6 4
6 8 10 10 8 1 -2 6 -59 9 -128z m1711 10 c3 -5 21 -10 39 -10 45 0 70 -29 63
-72 -3 -21 1 -39 10 -50 19 -21 12 -42 -19 -61 -34 -22 -61 -28 -78 -17 -12 7
-11 12 5 30 l19 21 -27 -6 c-33 -9 -34 -2 -6 37 l22 30 -31 -16 c-42 -22 -45
-20 -37 11 6 26 6 27 -13 10 -25 -23 -32 -21 -32 8 0 31 24 81 42 88 21 9 36
8 43 -3z m-1340 -160 c4 -6 28 -21 55 -35 34 -17 53 -35 67 -62 50 -104 324
-188 653 -200 333 -12 550 42 605 152 13 25 26 39 36 37 8 -1 32 9 53 23 52
35 78 34 43 -3 -15 -15 -41 -66 -57 -112 -35 -96 -60 -134 -104 -162 -27 -17
-28 -19 -6 -12 14 3 34 13 45 20 34 24 115 16 115 -11 0 -11 -6 -11 -29 -2
-25 9 -38 7 -81 -13 -46 -22 -54 -23 -83 -11 -54 23 -105 25 -148 6 -36 -17
-41 -17 -82 -1 -55 21 -121 21 -158 -1 -25 -15 -34 -16 -71 -4 -77 23 -108 24
-150 5 -34 -15 -45 -16 -81 -5 -76 23 -107 24 -147 6 -36 -16 -42 -16 -86 -1
-61 20 -114 20 -158 0 -33 -16 -37 -16 -94 5 -39 15 -68 20 -87 15 -21 -5 -27
-4 -23 7 7 20 72 23 107 5 35 -19 74 -20 102 -5 19 10 19 11 -8 43 -15 19 -44
59 -62 90 -19 31 -51 67 -71 81 -53 37 -87 75 -105 118 -14 33 -6 53 10 27z
m1926 -21 c14 -4 12 -17 -14 -110 -26 -93 -32 -106 -49 -101 -11 3 -24 -3 -33
-14 -7 -11 2 35 21 101 43 151 43 152 52 138 4 -6 14 -12 23 -14z m-2131 -344
c38 -57 70 -108 70 -113 0 -4 -12 -8 -27 -7 -24 0 -37 14 -89 90 -47 69 -58
92 -48 98 8 4 14 15 14 22 0 8 2 15 5 15 2 0 36 -47 75 -105z m1265 -46 c53
-20 58 -20 96 -5 48 20 96 20 129 1 34 -20 57 -18 107 6 28 13 53 19 68 15 35
-9 31 -26 -5 -26 -16 0 -50 -10 -75 -22 l-45 -22 -45 22 c-56 27 -71 27 -126
3 -42 -19 -43 -19 -93 0 -66 25 -106 24 -150 -2 -34 -20 -38 -20 -83 -5 -59
20 -100 20 -148 0 -34 -14 -41 -14 -102 7 -62 20 -67 21 -100 5 -43 -20 -73
-20 -140 1 -52 16 -55 16 -105 -5 l-52 -22 -68 23 c-37 12 -68 25 -68 30 0 12
40 8 91 -10 45 -16 50 -16 84 0 45 21 84 22 151 0 49 -15 55 -15 87 0 44 21
70 21 129 0 45 -16 50 -16 101 2 47 16 60 16 98 6 81 -23 94 -23 130 -2 43 26
64 26 134 0z m5 -60 c46 -20 49 -20 81 -3 43 22 109 22 140 1 31 -22 50 -21
93 3 23 15 36 17 41 10 8 -13 9 -13 -32 -34 -40 -20 -76 -20 -115 0 -33 17
-73 15 -125 -7 -29 -12 -40 -11 -104 11 l-70 25 -39 -23 c-46 -26 -71 -27
-134 -6 -44 15 -50 15 -92 -1 -47 -18 -77 -16 -151 6 -36 11 -47 10 -82 -5
-41 -19 -60 -18 -139 5 -36 11 -49 11 -95 -5 -58 -20 -98 -19 -105 3 -3 10 3
12 25 7 18 -4 40 -1 59 9 37 19 98 19 156 -1 42 -14 49 -14 77 0 39 20 94 20
148 0 39 -15 45 -15 83 0 51 20 80 20 144 0 50 -16 53 -16 86 5 44 27 88 27
150 0z m616 -51 c9 -2 -22 -39 -83 -98 -53 -52 -91 -87 -84 -78 15 20 7 38
-17 38 -10 0 18 35 73 90 72 73 91 87 93 71 2 -11 10 -21 18 -23z m-1324 -4
c56 -16 62 -16 112 1 53 18 54 18 114 -4 56 -21 62 -22 90 -7 39 20 96 20 155
0 45 -15 48 -15 81 5 41 25 85 27 149 4 44 -16 50 -16 95 0 26 9 55 17 65 17
25 0 107 -38 107 -50 0 -14 -21 -12 -50 5 -33 19 -81 19 -130 -1 -39 -16 -43
-15 -92 5 -64 26 -92 26 -135 0 -35 -22 -50 -22 -131 2 -35 11 -48 11 -75 0
-54 -22 -85 -24 -127 -7 -51 20 -80 20 -124 -1 -33 -15 -39 -15 -94 2 -57 17
-106 17 -144 0 -13 -5 -18 -3 -18 7 0 14 45 35 79 37 8 1 41 -6 73 -15z m690
-56 c49 -21 51 -21 98 -4 53 19 111 18 118 -2 3 -10 -4 -12 -31 -7 -25 5 -48
1 -81 -14 -47 -20 -47 -20 -97 -1 -64 26 -103 25 -146 -1 -34 -21 -37 -22 -87
-5 -66 20 -89 20 -142 0 -40 -15 -46 -15 -103 5 -57 20 -64 20 -97 6 -46 -19
-87 -19 -143 1 -24 8 -50 13 -58 10 -7 -3 -13 1 -13 9 0 20 34 19 94 -1 45
-16 51 -15 101 2 52 17 55 17 115 -1 59 -18 63 -18 111 -1 48 18 52 18 119 0
70 -18 70 -18 108 4 47 27 71 27 134 0z m0 -59 c40 -16 57 -18 75 -10 18 8 23
8 23 -4 0 -27 -49 -29 -119 -5 l-68 24 -37 -23 c-39 -25 -71 -25 -153 -1 -35
10 -47 10 -74 -4 -41 -21 -79 -20 -139 1 -46 16 -50 16 -89 -1 -42 -19 -104
-17 -124 3 -18 18 0 23 37 11 28 -9 40 -8 65 4 39 21 82 20 142 -1 45 -16 50
-16 84 0 45 21 74 21 141 1 28 -10 58 -14 65 -10 8 4 25 13 39 21 34 20 70 19
132 -6z m-476 -60 c54 -20 59 -21 91 -5 42 20 98 20 153 1 40 -14 45 -14 77 5
41 24 103 26 144 5 40 -21 27 -37 -16 -19 -46 19 -74 18 -110 -6 -37 -24 -53
-25 -122 -3 -51 16 -56 16 -109 -2 -53 -18 -58 -18 -104 -2 -55 19 -106 22
-116 6 -4 -8 -9 -7 -15 2 -6 10 -1 18 19 26 37 17 43 16 108 -8z m-378 -76
c50 -36 92 -66 92 -67 0 -2 -12 -1 -27 2 -23 4 -25 2 -20 -17 5 -21 0 -18
-180 108 -28 20 -29 31 -3 24 14 -4 20 0 20 11 0 20 -3 22 118 -61z m799 41
c33 -9 18 -24 -23 -24 -19 0 -52 -10 -74 -22 -39 -23 -39 -23 -93 -4 -57 19
-99 18 -152 -4 -27 -11 -39 -10 -93 10 -34 12 -62 27 -62 31 0 13 26 11 67 -6
45 -19 67 -19 121 2 40 15 47 15 96 0 67 -22 78 -21 123 3 40 21 54 23 90 14z
m-1053 -38 c15 -7 17 -6 11 4 -4 7 19 -9 51 -36 138 -113 391 -254 625 -350
63 -25 116 -48 118 -50 2 -2 -30 -1 -70 2 -257 18 -413 43 -581 95 l-98 30 0
127 c0 99 -3 133 -15 148 -15 18 -15 18 -9 -7 4 -21 0 -31 -22 -48 -31 -24
-20 -29 14 -5 l22 15 0 -110 0 -111 -27 11 c-92 35 -225 148 -239 203 -15 62
-24 15 -24 -129 l0 -155 -115 0 c-63 0 -115 2 -115 5 0 3 29 46 65 95 l65 90
-58 82 c-32 46 -62 89 -66 96 -6 10 37 12 221 10 125 -2 237 -7 247 -12z
m1305 -72 c-9 -11 -10 -20 -2 -33 9 -15 -2 -24 -83 -68 -79 -43 -94 -48 -94
-33 0 10 -8 20 -17 22 -11 2 25 27 92 65 127 70 121 68 104 47z m560 -172 l2
-177 -31 -47 c-54 -81 -162 -149 -320 -202 -556 -186 -1499 -79 -1708 193
l-32 43 0 158 0 158 57 -57 c253 -250 1053 -348 1598 -195 146 41 288 115 362
189 35 35 63 68 63 75 0 6 -25 -16 -56 -50 -48 -51 -173 -140 -197 -140 -4 0
-7 47 -7 105 l0 106 30 -16 c40 -21 67 -19 141 10 104 39 96 51 98 -153z
m-1139 -15 c58 -22 99 -42 92 -45 -6 -2 -12 -13 -12 -24 0 -11 -4 -18 -8 -16
-5 2 -56 21 -115 42 -92 35 -104 41 -89 53 16 12 16 14 -3 29 -19 16 -19 16 5
9 14 -4 72 -26 130 -48z"/>
<path d="M1270 3110 c0 -5 7 -10 15 -10 8 0 15 5 15 10 0 6 -7 10 -15 10 -8 0
-15 -4 -15 -10z"/>
<path d="M1521 3074 c0 -11 3 -14 6 -6 3 7 2 16 -1 19 -3 4 -6 -2 -5 -13z"/>
<path d="M1870 2960 c0 -5 7 -10 16 -10 8 0 12 5 9 10 -3 6 -10 10 -16 10 -5
0 -9 -4 -9 -10z"/>
<path d="M700 2931 c0 -20 13 -41 25 -41 18 0 26 15 19 34 -6 17 -44 23 -44 7z"/>
<path d="M1965 2880 c3 -5 8 -10 11 -10 2 0 4 5 4 10 0 6 -5 10 -11 10 -5 0
-7 -4 -4 -10z"/>
<path d="M630 2880 c0 -5 4 -10 9 -10 6 0 13 5 16 10 3 6 -1 10 -9 10 -9 0
-16 -4 -16 -10z"/>
<path d="M566 2842 c-3 -6 -1 -14 5 -17 15 -10 25 3 12 16 -7 7 -13 7 -17 1z"/>
<path d="M1303 2620 c0 -36 2 -50 4 -32 2 17 2 47 0 65 -2 17 -4 3 -4 -33z"/>
<path d="M1281 2604 c0 -11 3 -14 6 -6 3 7 2 16 -1 19 -3 4 -6 -2 -5 -13z"/>
<path d="M1312 2510 c0 -14 2 -19 5 -12 2 6 2 18 0 25 -3 6 -5 1 -5 -13z"/>
<path d="M1352 2460 c0 -14 2 -19 5 -12 2 6 2 18 0 25 -3 6 -5 1 -5 -13z"/>
<path d="M1322 2440 c0 -14 2 -19 5 -12 2 6 2 18 0 25 -3 6 -5 1 -5 -13z"/>
<path d="M1322 2340 c0 -14 2 -19 5 -12 2 6 2 18 0 25 -3 6 -5 1 -5 -13z"/>
<path d="M1313 2235 c0 -33 2 -45 4 -27 2 18 2 45 0 60 -2 15 -4 0 -4 -33z"/>
<path d="M1321 2144 c0 -11 3 -14 6 -6 3 7 2 16 -1 19 -3 4 -6 -2 -5 -13z"/>
<path d="M1311 2104 c0 -11 3 -14 6 -6 3 7 2 16 -1 19 -3 4 -6 -2 -5 -13z"/>
<path d="M1312 2000 c0 -14 2 -19 5 -12 2 6 2 18 0 25 -3 6 -5 1 -5 -13z"/>
<path d="M1322 1906 c-2 -59 -21 -104 -65 -153 l-20 -23 20 0 c18 0 21 -6 21
-49 1 -27 8 -66 16 -86 21 -49 13 -58 -39 -51 l-42 7 23 -49 c40 -84 113 -94
161 -23 33 48 29 87 -12 145 -20 29 -35 62 -35 78 0 26 3 28 37 28 l37 0 -26
28 c-46 49 -63 85 -69 147 l-6 60 -1 -59z m-24 -418 c-6 -18 -28 -21 -28 -4 0
9 7 16 16 16 9 0 14 -5 12 -12z"/>
<path d="M340 700 c30 -11 57 -20 60 -19 12 2 -77 38 -95 38 -11 0 5 -9 35
-19z"/>
<path d="M418 673 c7 -3 16 -2 19 1 4 3 -2 6 -13 5 -11 0 -14 -3 -6 -6z"/>
<path d="M458 663 c7 -3 16 -2 19 1 4 3 -2 6 -13 5 -11 0 -14 -3 -6 -6z"/>
<path d="M340 432 c0 -72 2 -83 22 -96 32 -22 38 -5 30 78 -6 56 -11 71 -29
84 l-23 14 0 -80z m40 12 c0 -8 -4 -14 -10 -14 -5 0 -10 9 -10 21 0 11 5 17
10 14 6 -3 10 -13 10 -21z m0 -70 c0 -14 -4 -23 -10 -19 -5 3 -10 15 -10 26 0
10 5 19 10 19 6 0 10 -12 10 -26z"/>
<path d="M2280 456 c0 -19 -4 -38 -10 -41 -6 -4 -10 7 -10 25 0 18 -4 29 -10
25 -5 -3 -10 -42 -10 -86 0 -46 4 -79 10 -79 6 0 10 18 10 39 0 49 17 63 23
19 2 -18 5 4 5 50 1 45 0 82 -3 82 -3 0 -5 -15 -5 -34z"/>
<path d="M410 380 c0 -69 3 -81 20 -90 16 -8 20 -8 20 4 0 7 -7 16 -15 20 -8
3 -15 15 -15 27 0 15 5 19 15 15 9 -3 15 0 15 10 0 8 -7 17 -15 20 -8 4 -15
15 -15 25 0 12 5 16 15 13 9 -4 15 0 15 9 0 12 -19 27 -36 27 -2 0 -4 -36 -4
-80z"/>
<path d="M2195 409 c-14 -84 -21 -158 -13 -153 4 3 8 13 8 23 0 10 7 24 15 31
13 10 15 9 15 -9 0 -12 4 -20 9 -17 8 5 -11 141 -22 152 -3 3 -8 -9 -12 -27z
m12 -56 c-3 -10 -5 -4 -5 12 0 17 2 24 5 18 2 -7 2 -21 0 -30z"/>
<path d="M471 343 c1 -66 3 -78 9 -48 l6 40 8 -38 c5 -20 12 -40 17 -43 12 -7
11 8 -1 41 -7 18 -6 31 2 44 15 24 3 68 -22 81 -19 10 -20 8 -19 -77z m29 26
c0 -10 -4 -19 -10 -19 -5 0 -10 12 -10 26 0 14 4 23 10 19 6 -3 10 -15 10 -26z"/>
<path d="M2166 409 c-3 -8 -7 -36 -9 -64 l-3 -50 -2 53 c-1 28 -6 52 -12 52
-5 0 -13 -24 -17 -52 l-8 -53 -6 50 -6 50 -1 -45 c-2 -59 8 -121 19 -114 5 3
9 31 10 62 1 63 4 61 14 -11 4 -27 9 -46 12 -43 7 7 23 169 18 175 -3 2 -7 -2
-9 -10z"/>
<path d="M532 312 c0 -48 3 -73 5 -56 3 21 11 34 24 37 14 4 19 14 19 39 0 38
-8 52 -32 61 -16 6 -18 -2 -16 -81z m32 17 c-11 -18 -24 -8 -24 19 1 26 1 26
15 8 8 -10 12 -23 9 -27z"/>
<path d="M597 348 c-8 -31 -18 -137 -11 -115 8 25 23 21 35 -9 16 -43 18 -24
6 64 -11 83 -20 101 -30 60z m15 -53 c3 -14 1 -25 -3 -25 -5 0 -9 11 -9 25 0
14 2 25 4 25 2 0 6 -11 8 -25z"/>
<path d="M2047 364 c-4 -4 -6 -44 -6 -88 2 -63 3 -72 8 -41 l7 40 15 -35 c15
-34 15 -34 15 45 -1 64 -4 80 -16 83 -9 1 -19 0 -23 -4z m31 -41 c-5 -25 -28
-28 -28 -4 0 12 6 21 16 21 9 0 14 -7 12 -17z"/>
<path d="M653 275 c0 -68 2 -79 6 -45 l7 45 8 -47 c13 -75 26 -56 24 35 -1 79
-2 80 -8 27 -4 -30 -8 -44 -9 -30 -1 14 -8 43 -16 65 -13 39 -13 38 -12 -50z"/>
<path d="M1980 269 c-6 -45 -9 -84 -6 -87 3 -3 6 2 6 11 0 25 20 31 36 11 14
-18 15 -17 10 12 -3 17 -8 54 -12 83 -4 28 -10 51 -14 51 -4 0 -13 -36 -20
-81z m30 -10 c0 -5 -4 -9 -10 -9 -5 0 -10 7 -10 16 0 8 5 12 10 9 6 -3 10 -10
10 -16z"/>
<path d="M721 321 c-18 -33 -13 -116 8 -142 l20 -24 9 25 c11 28 4 49 -9 29
-8 -12 -11 -11 -19 1 -12 19 -13 70 0 90 8 12 10 12 16 -3 9 -24 23 -22 17 3
-9 33 -30 44 -42 21z"/>
<path d="M1945 328 c-3 -7 -1 -47 4 -88 l8 -75 2 88 c1 82 -3 104 -14 75z"/>
<path d="M798 315 c-3 -6 -9 -32 -12 -60 -4 -27 -10 -60 -13 -72 -3 -14 -1
-23 6 -23 6 0 11 7 11 15 0 24 28 17 34 -7 2 -13 2 5 -1 40 -6 74 -17 120 -25
107z m12 -75 c0 -11 -4 -20 -9 -20 -5 0 -7 9 -4 20 3 11 7 20 9 20 2 0 4 -9 4
-20z"/>
<path d="M1902 238 c1 -71 2 -77 8 -38 l7 45 1 -43 c3 -62 22 -43 22 21 0 37
-3 48 -10 37 -7 -11 -10 -5 -10 23 0 20 -4 37 -10 37 -6 0 -9 -33 -8 -82z"/>
<path d="M842 223 c1 -80 2 -83 8 -33 l6 55 8 -40 c16 -77 25 -71 24 15 -1 67
-2 75 -7 40 l-6 -45 -8 42 c-13 77 -27 59 -25 -34z"/>
<path d="M1850 275 c0 -46 -27 -48 -33 -2 -2 17 -4 -6 -4 -53 0 -47 2 -68 4
-47 3 23 9 37 18 37 9 0 15 -14 18 -37 2 -21 4 1 5 50 1 48 0 87 -3 87 -3 0
-5 -16 -5 -35z"/>
<path d="M917 284 c-13 -13 -8 -129 7 -149 12 -16 16 -17 30 -6 21 17 22 81 1
81 -11 0 -13 -8 -8 -31 5 -25 3 -31 -8 -27 -20 7 -25 108 -5 108 8 0 17 -6 20
-12 3 -7 4 -2 3 12 -2 24 -26 38 -40 24z"/>
<path d="M1740 224 c0 -76 14 -112 36 -93 10 8 13 32 12 88 l-2 76 -3 -65 c-6
-92 -23 -102 -23 -12 0 41 -4 72 -10 72 -6 0 -10 -29 -10 -66z"/>
<path d="M1016 259 c-14 -60 -22 -139 -14 -139 4 0 8 7 8 15 0 8 7 15 15 15 8
0 15 -9 15 -20 0 -30 40 -27 41 3 1 21 1 21 9 -3 4 -14 9 -18 9 -10 1 12 4 12
12 -2 14 -24 39 -23 39 2 0 11 7 20 15 20 8 0 15 -9 15 -20 0 -11 5 -20 11
-20 6 0 9 6 6 14 -3 8 -9 42 -13 76 -4 33 -11 63 -15 66 -5 3 -9 4 -10 2 0 -2
-6 -37 -13 -78 l-13 -75 -2 83 c-1 102 -28 114 -33 14 -1 -33 -2 -31 -7 12
-10 81 -31 70 -32 -16 l-2 -73 -12 73 c-13 80 -21 96 -29 61z m11 -66 c-3 -10
-5 -4 -5 12 0 17 2 24 5 18 2 -7 2 -21 0 -30z m140 -20 c-3 -10 -5 -2 -5 17 0
19 2 27 5 18 2 -10 2 -26 0 -35z"/>
<path d="M1696 269 c-9 -30 -25 -153 -20 -158 3 -3 7 4 10 16 8 29 34 39 34
13 0 -11 4 -20 9 -20 8 0 -14 148 -23 158 -3 3 -7 -1 -10 -9z m11 -76 c-3 -10
-5 -4 -5 12 0 17 2 24 5 18 2 -7 2 -21 0 -30z"/>
<path d="M1550 186 c0 -51 4 -86 10 -86 6 0 10 17 11 38 l1 37 10 -32 c6 -18
15 -33 20 -33 5 0 6 10 2 23 -4 12 -8 47 -8 77 -1 49 -3 55 -23 58 -22 3 -23
1 -23 -82z m40 34 c0 -11 -4 -20 -10 -20 -5 0 -10 9 -10 20 0 11 5 20 10 20 6
0 10 -9 10 -20z"/>
<path d="M1620 230 c0 -27 5 -43 15 -46 8 -4 15 -18 15 -33 -1 -24 -2 -24 -14
-8 -18 24 -24 21 -18 -8 7 -37 39 -33 47 6 5 24 2 38 -14 60 -12 15 -21 33
-21 39 0 14 17 13 23 -2 3 -7 6 -3 6 10 1 16 -5 22 -19 22 -17 0 -20 -7 -20
-40z"/>
<path d="M1212 180 c1 -61 3 -73 7 -45 l7 40 7 -37 c6 -30 22 -48 43 -48 2 0
4 9 4 20 0 27 26 25 33 -2 13 -48 15 -8 4 64 -14 87 -23 105 -31 57 -24 -142
-24 -141 -25 -51 -1 47 -5 82 -11 82 -5 0 -10 -17 -11 -37 l-1 -38 -13 40
c-13 39 -13 39 -13 -45z m85 -7 c-3 -10 -5 -4 -5 12 0 17 2 24 5 18 2 -7 2
-21 0 -30z"/>
<path d="M1343 175 c0 -50 2 -71 4 -47 5 50 23 57 23 8 0 -19 5 -38 10 -41 6
-4 10 25 10 79 0 51 -4 86 -10 86 -5 0 -10 -16 -10 -35 0 -47 -18 -45 -23 3
-2 20 -4 -3 -4 -53z"/>
<path d="M1430 175 c0 -66 3 -85 14 -85 26 0 35 26 32 90 -4 84 -3 80 -26 80
-18 0 -20 -7 -20 -85z m30 35 c0 -11 -4 -20 -10 -20 -5 0 -10 9 -10 20 0 11 5
20 10 20 6 0 10 -9 10 -20z m5 -65 c0 -10 -6 -20 -12 -22 -8 -3 -13 5 -13 22
0 17 5 25 13 23 6 -3 12 -13 12 -23z"/>
<path d="M1490 180 c0 -79 0 -80 25 -80 16 0 25 6 25 15 0 8 -7 15 -15 15 -8
0 -15 9 -15 20 0 11 7 20 15 20 8 0 15 7 15 15 0 8 -7 15 -15 15 -8 0 -15 7
-15 15 0 8 7 15 15 15 8 0 15 7 15 15 0 9 -9 15 -25 15 -25 0 -25 -1 -25 -80z"/>
</g>
</svg>
